<svg xmlns="http://www.w3.org/2000/svg" width="620" height="148" viewBox="0 0 620 148" fill="none" font-family="ui-monospace,SFMono-Regular,Menlo,Consolas,'Liberation Mono',monospace"><style>.data{fill:#59636e}.data-stroke{stroke:#59636e}.emph{fill:#7a263a}.dim{fill:#8c959f}.rule{stroke:#d8dee4}.surface{stroke:#ffffff}.wash{fill:#59636e;opacity:.12}@media(prefers-color-scheme:dark){.data{fill:#c9d1d9}.data-stroke{stroke:#c9d1d9}.emph{fill:#ff9eb1}.dim{fill:#8b949e}.rule{stroke:#30363d}.surface{stroke:#0d1117}.wash{fill:#c9d1d9;opacity:.16}}</style><g opacity="0"><animate attributeName="opacity" from="0" to="1" begin="0.08s" dur="0.42s" fill="freeze"/><text x="0" y="50" class="emph" font-size="52" font-weight="700">1425</text><text x="0" y="72" class="dim" font-size="12">contributions in the last year</text></g><g opacity="0"><animate attributeName="opacity" from="0" to="1" begin="0.28s" dur="0.42s" fill="freeze"/><text x="620" y="30" class="emph" font-size="19" text-anchor="end" font-weight="700">68</text><text x="620" y="47" class="dim" font-size="11" text-anchor="end">active days</text></g><g opacity="0"><animate attributeName="opacity" from="0" to="1" begin="0.40s" dur="0.42s" fill="freeze"/><text x="620" y="70" class="emph" font-size="19" text-anchor="end" font-weight="700">353</text><text x="620" y="87" class="dim" font-size="11" text-anchor="end">best week</text></g><clipPath id="stats-reveal"><rect x="0" y="84" height="56" width="0"><animate attributeName="width" from="0" to="620" begin="0.48s" dur="1.25s" fill="freeze"/></rect></clipPath><g clip-path="url(#stats-reveal)"><path d="M0.0 138.0L0.0 138.0L11.9 138.0L23.8 138.0L35.8 138.0L47.7 138.0L59.6 138.0L71.5 138.0L83.5 138.0L95.4 138.0L107.3 138.0L119.2 138.0L131.2 138.0L143.1 138.0L155.0 138.0L166.9 138.0L178.8 138.0L190.8 138.0L202.7 137.7L214.6 138.0L226.5 138.0L238.5 138.0L250.4 138.0L262.3 137.2L274.2 137.0L286.2 138.0L298.1 137.6L310.0 138.0L321.9 137.3L333.8 137.6L345.8 138.0L357.7 137.5L369.6 138.0L381.5 138.0L393.5 138.0L405.4 138.0L417.3 138.0L429.2 137.7L441.2 137.0L453.1 138.0L465.0 138.0L476.9 137.2L488.8 138.0L500.8 134.7L512.7 131.1L524.6 90.8L536.5 125.8L548.5 117.2L560.4 112.8L572.3 90.0L584.2 123.0L596.2 132.4L608.1 135.7L620.0 136.8L620.0 138.0Z" class="wash"/><path d="M0.0 138.0L11.9 138.0L23.8 138.0L35.8 138.0L47.7 138.0L59.6 138.0L71.5 138.0L83.5 138.0L95.4 138.0L107.3 138.0L119.2 138.0L131.2 138.0L143.1 138.0L155.0 138.0L166.9 138.0L178.8 138.0L190.8 138.0L202.7 137.7L214.6 138.0L226.5 138.0L238.5 138.0L250.4 138.0L262.3 137.2L274.2 137.0L286.2 138.0L298.1 137.6L310.0 138.0L321.9 137.3L333.8 137.6L345.8 138.0L357.7 137.5L369.6 138.0L381.5 138.0L393.5 138.0L405.4 138.0L417.3 138.0L429.2 137.7L441.2 137.0L453.1 138.0L465.0 138.0L476.9 137.2L488.8 138.0L500.8 134.7L512.7 131.1L524.6 90.8L536.5 125.8L548.5 117.2L560.4 112.8L572.3 90.0L584.2 123.0L596.2 132.4L608.1 135.7L620.0 136.8" class="data-stroke" stroke-width="2" stroke-linejoin="round" stroke-linecap="round"/></g><rect y="84" width="2" height="56" class="emph" opacity="0"><animate attributeName="x" from="0" to="620" begin="0.48s" dur="1.25s" fill="freeze"/><set attributeName="opacity" to=".7" begin="0.48s"/><set attributeName="opacity" to="0" begin="1.73s"/></rect><circle cx="618.0" cy="136.8" r="4.5" class="emph surface" stroke-width="2" opacity="0"><animate attributeName="opacity" from="0" to="1" begin="1.73s" dur="0.3s" fill="freeze"/></circle></svg>
